<svg id="Layer_1" xmlns="http://www.w3.org/2000/svg" viewBox="0 0 169.5 197">
  <style>
    .st0{fill:#FACA3D;} .st1{fill:#FACB40;} .st2{fill:#FAC836;} .st3{fill:#FAC837;}
  </style>
  <path class="st0" d="M130.5 1h10c.7.3 1.4.8 2.1 1 25.1 7.7 33.7 36.5 16.8 56.5-3.1 3.7-6.5 7.2-9.9 10.6-2.5 2.4-3.3 5-3.3 8.4.1 23.2 0 46.3.1 69.5 0 17 .1 34 .2 51H-.5V23.6h52.6c2.2 0 4.2.2 5.4-2.4 4.9-10.8 14-16 25-18.7 1.4-.3 2.7-.9 4-1.4h5c7.1 2 14.4 3.8 18.9 9.5 7-3.4 13.6-6.5 20.1-9.6zm7.9 79.3c-2.3 2.1-3.7 3.4-5.1 4.7-4.4 4.3-8.6 8.8-13.2 12.9-6.8 6-11.6 5.8-18.4-.4-1.2-1.1-2.3-2.4-3.5-3.5-5.6-5.4-11.2-10.9-16.9-16.3-3.9-3.7-7.9-7.2-11.6-11-8.4-8.4-13.7-18.3-14.6-30.3-.1-1.6-.5-3.2-.7-4.8H7.7V190h130.7V80.3zm-28.5-57.2c-3.2-6.4-7.6-10.5-14-12-11.4-2.7-21.3.3-28.6 9.5-7 8.7-6.4 18.6-1 27.6 4.1 6.7 9.4 13 15.1 18.5 9.5 9.3 19.8 17.8 30.1 26.9 11.3-10.6 23-21.2 34.2-32.4 5.9-5.9 10.6-12.8 13.3-20.9 1.4-4.3 2.2-8.7.8-13.2-2.5-8.2-17-18.4-25.3-17.8-.5 0-1 .3-1.4.4-6.3 1.6-12.4 3.6-17.2 8.5-1.8 1.7-3.7 3-6 4.9z"/>
  <path class="st1" d="M20.5 121.4v-7h104.7v7H20.5zm104.8 14v7.2H20.6v-7.2h104.7z"/>
  <path class="st2" d="M125.3 156.2v6.6H20.6v-6.6h104.7z"/>
  <path class="st3" d="M83 94v6.6H20.6V94H83z"/>
  <path class="st2" d="M20.5 78.9v-6.6h41.6v6.6H20.5z"/>
</svg>
