<svg id="Layer_1" xmlns="http://www.w3.org/2000/svg" viewBox="0 0 197 197">
  <style>
    .st0{fill:#FAC939;} .st1{fill:#FACA3E;}
  </style>
  <path class="st0" d="M86 1h24c1 .4 2.1.9 3.1 1 46.2 7.1 81.7 46.2 83.8 92.3 2.1 47.9-29.2 89.7-75.5 101-3.5.8-6.9 1.8-10.4 2.7H85c-1.6-.6-3.3-1.4-5-1.8-45.4-8.9-79-48.2-80-93.4-1-47.4 30-88 75.6-99.1C79.1 2.9 82.5 1.9 86 1zm12.4 183.5c46.8.1 84.9-37.8 85-84.7.2-47.1-37.8-85.3-84.9-85.4-46.8-.1-84.9 37.8-85.1 84.7-.1 47.1 38 85.4 85 85.4z"/>
  <path class="st1" d="M92.4 97.3V31.4c0-1.8-.5-4 .4-5.4 1.4-2.1 3.6-5 5.5-5.1 2-.1 4.4 2.6 6 4.6.9 1.1.6 3.2.6 4.8 0 22 .2 43.9-.1 65.9 0 3.2-1.4 7-3.4 9.4-10.5 11.9-21.4 23.4-32 35.1-.2.2-.4.5-.7.7-2.7 2.8-5.9 4.2-9.2 1.4-3.6-3.1-2.6-6.6.2-9.7 7.1-7.9 14.3-15.8 21.5-23.6 3.6-3.9 7.1-7.8 11.2-12.2z"/>
</svg>
