<svg id="Layer_1" xmlns="http://www.w3.org/2000/svg" viewBox="0 0 197.9 197.1">
  <style>
    .st0{fill:#FAC93A;}
  </style>
  <path class="st0" d="M85.9 0h25c1 .4 2 .9 3.1 1.1 47.8 7.7 81.9 46.1 83.7 94.2 1.7 47.3-29.9 88.4-76.3 99.2-3.5.8-7 1.7-10.4 2.5H86c-2-.6-4-1.4-6-1.8-45.7-8.6-78.8-47.5-80-93.9-1.1-47.1 29.8-87.7 75-98.4C78.6 2 82.2 1 85.9 0zM43.4 93.7c3.4-14.7 6.7-29 10-43.4-7-3.7-14.3-7.6-22-11.7-13.6 15.8-21 33.9-21.8 55.1h33.8zm110.9 0h33.9c-1-20.4-7.6-38-20.5-53.3-.6-.7-2.5-1.3-3.2-.9-6.9 3.6-13.7 7.4-20.1 11 3.2 14.2 6.5 28.4 9.9 43.2zM53.2 146.8c-3.4-14.7-6.6-28.9-10-43.5H9.5c1.1 21.2 8.1 39.4 21.9 55 7.7-4.1 15-7.9 21.8-11.5zm101.3-43.6c-3.4 14.9-6.7 29.2-10 43.5 7 3.7 14.3 7.6 21.9 11.6 13.7-15.8 21-33.9 21.8-55.1h-33.7zM61.9 54.5c-4.7 12.4-8.1 25.4-8.4 39.2h41.1c0-10 .1-19.7-.1-29.3 0-1.1-1.3-2.8-2.3-3.1-9.9-2.4-19.7-4.5-30.3-6.8zm-.8 88.8c8.8-2.4 15.7-4.7 22.8-6.3 10.5-2.3 10.6-2 10.6-13.1v-20.6H52.1c3.2 13.8 6.1 26.8 9 40zm74.4-88.7c-10.4 2.3-20.3 4.4-30.1 6.7-.9.2-2.1 1.4-2.1 2.2-.1 10.1-.1 20.2-.1 30.2h40.7c.5-10.8-4-30.9-8.4-39.1zm-32.4 48.6c0 10.2-.1 20.2.2 30.1 0 .9 2 2.2 3.3 2.5 6.1 1.5 12.3 2.6 18.4 4.1 3.5.8 6.8 2.2 10.5 3.4 4.7-13.3 8.5-26.2 8.5-40.1h-40.9zM94.2 9.3c-5.3-.7-9.4.1-12.1 5-2.9 5.2-6.4 10.1-9.3 15.3-2.9 5.1-5.3 10.5-8.5 17 10.6 2.2 19.9 4.2 29.9 6.4V9.3zm38 37.6c.3-.7.7-1.4 1-2.2-5.9-10.1-12-20.2-17.8-30.5-2.8-4.9-6.8-5.6-12-4.9V53c10-2.1 19.4-4.1 28.8-6.1zm-38 140.7v-43.7c-9.9 2.1-19.2 4-30.3 6.3 6.5 11.5 12.3 21.5 17.8 31.7 2.7 5 6.6 6.7 12.5 5.7zm9.2 0c5.1.7 9.3.1 12-4.8 3.4-6.1 7.3-11.9 10.6-18 2.4-4.4 4.3-9.2 6.9-14.8-10.4-2.1-19.7-4-29.5-6v43.6zM56.5 42.9C62.1 32.6 67.2 23 72.7 12.8 59.5 16.7 48 22.6 37.8 32.7c6.7 3.6 12.6 6.8 18.7 10.2zm84.6 0c6.1-3.4 12.2-6.7 18.9-10.4-10.7-9.8-21.9-16-35-19.5 5.4 9.9 10.4 19.3 16.1 29.9zM72.3 183.7c-5.5-10.5-10.3-19.9-15.5-29.9-6.1 3.4-12.3 6.9-19.2 10.7 10.5 9.4 21.2 15.7 34.7 19.2zm53 0c13.3-3.2 24.2-9.6 34.8-19.2-7-3.9-13.3-7.3-19.2-10.6-5.4 10.2-10.3 19.6-15.6 29.8z"/>
</svg>
